# xmcd
# 
# Track frame offsets:
#     150
#     15460
#     34200
#     53580
#     70207
#     88895
#     103887
#     125365
#     142092
#     160670
#     181232
#     209965
#     227542
#     247505
#     268557
#     286130
# 
# Disc length: 4016
# 
# Revision: 8
# Processed by: cddbd v1.5.2PL0 Copyright (c) Steve Scherf et al.
# Submitted via: fre:ac v1.0.17
# 
DISCID=dd0fae10
DTITLE=八神純子 - ザ・ベスト・セレクション
DYEAR=1996
DGENRE=JPop
TTITLE0=みずいろの雨
TTITLE1=ポーラースター
TTITLE2=I’m A Woman
TTITLE3=時の流れに
TTITLE4=Touch you,tonight
TTITLE5=思い出は美しすぎて
TTITLE6=Deja Vu
TTITLE7=思い出のスクリーン
TTITLE8=パープルタウン~You Oughta Know By Now~
TTITLE9=黄昏のBAY CITY
TTITLE10=夜間飛行
TTITLE11=FLY AWAY
TTITLE12=FULL MOON
TTITLE13=夢見る頃を過ぎている
TTITLE14=Mr.ブルー～私の地球～(ライブ)
TTITLE15=みずいろの雨(ライブ)
EXTD=YEAR: 1996
EXTT0=
EXTT1=
EXTT2=
EXTT3=
EXTT4=
EXTT5=
EXTT6=
EXTT7=
EXTT8=
EXTT9=
EXTT10=
EXTT11=
EXTT12=
EXTT13=
EXTT14=
EXTT15=
PLAYORDER=
